#define arch20_width 20
#define arch20_height 20
static char arch20_bits[] = {
  0x00, 0x03, 0x00, 0x00, 0x03, 0x00, 0x00, 0x03, 0x00, 0x80, 0x07, 0x00, 
  0x80, 0x07, 0x00, 0xC0, 0x0F, 0x00, 0xC0, 0x0F, 0x00, 0xE0, 0x1F, 0x00, 
  0xE0, 0x1F, 0x00, 0xF0, 0x3F, 0x00, 0xF0, 0x3F, 0x00, 0xF8, 0x7F, 0x00, 
  0xF8, 0x7C, 0x00, 0x7C, 0xF8, 0x00, 0x7C, 0xF8, 0x00, 0x3E, 0xF0, 0x01, 
  0x3F, 0xF0, 0x01, 0x1F, 0xE0, 0x03, 0x07, 0x80, 0x03, 0x03, 0x00, 0x03, 
  };
